<?xml version="1.0" encoding="UTF-8"?>
<svg id="Layer_1" data-name="Layer 1" xmlns="http://www.w3.org/2000/svg" viewBox="0 0 1418.32 551.43">
  <defs>
    <style>
      .cls-1 {
        fill: #231f20;
      }
    </style>
  </defs>
  <path class="cls-1" d="m0,550.32c1.22-3.08,3.82-4.28,5.71-6.12,3.67-3.56,6.06-7.67,6.93-12.76.97-5.65,2.08-6.54,7.83-7.21,7.65-.88,8.85-2.23,7.71-9.78-1.05-6.91-3.75-13.37-6.01-19.94-.95-2.76-2.11-5.47-2.76-8.29-1.81-7.89-.78-15.32,5.11-21.28,3.8-3.84,5.91-8.33,7.25-13.41.8-3.02,1.96-5.96,3.08-8.89,1.47-3.85,4.84-5.67,8.16-7.63,4.59-2.71,5.13-4.13,2.31-8.63-2.29-3.66-3.05-6.48.11-10.13,2.6-3.01,2-6.72-.16-10.03-.49-.75-1.07-1.44-1.62-2.14-5.63-7.08-5.28-9.74,2.28-15.07,7.7-5.43,15.49-10.74,23.23-16.11,1.29-.89,2.62-1.76,3.78-2.81,2.86-2.59,2.82-3.38-.12-5.72-.88-.7-1.84-1.29-2.74-1.95-2.32-1.71-5.14-3.07-3.73-6.91,1.39-3.78,4.71-6.12,8.86-5.76,2.58.22,5.06,1.56,8.33.99-1.22-3.91-3.45-6.66-5.98-9.15-5.17-5.09-6.98-10.73-3.71-17.66,1.23-2.61,1.8-5.54,2.59-8.35,1.12-3.98,3.06-7.37,6.17-10.21,3.8-3.46,4.23-5.68,1.52-9.95-2.52-3.96-5.68-7.5-8.49-11.28-3.31-4.45-3.1-5.24,2.14-6.79,3.65-1.08,7.42-1.74,11.09-2.77,2.93-.82,3.28-1.97,1.2-4.14-2.8-2.91-5.91-5.51-8.7-8.43-2.81-2.94-2.41-4.28,1.51-5.6,2.33-.79,4.8-1.18,7.11-2.02,5.37-1.96,6.8-5.1,4.78-10.54-.93-2.52-2.23-4.9-3.28-7.38-1.24-2.93-1.84-5.99-1.62-9.2.17-2.49,1.13-4.33,3.76-4.87,2.55-.52,4.96-.58,6.44,2.13.43.79.83,1.59,1.26,2.38,1.03,1.91,2.38,2.62,4.33,1.18.72-.53,1.57-.93,2.21-1.54,7.17-6.81,16.3-7.8,25.49-8.84,14.91-1.68,29.81-3.48,44.7-5.37,7.12-.9,14.26-1.48,21.38-2.4,20.44-2.64,40.97-4.56,61.44-6.95,20.25-2.36,40.46-5.01,60.7-7.42,6.23-.74,12.51-.93,18.71-2.15,5.99-1.18,6.26-1.29,4.68-7.44-2.12-8.25-4.36-16.48-6.54-24.72-.4-1.51-.82-3.03-1.08-4.57-.35-2.05.29-3.49,2.61-3.84,10.66-1.62,21.19-3.32,31.96.1,11.5,3.65,23.33,3.55,35.28,1.84,13.77-1.97,27.26-5.47,41.02-7.25,11.77-1.53,23.58-2.8,35.31-4.58,14.39-2.18,28.77-4.45,43.16-6.65,13.73-2.1,27.46-4.21,41.2-6.2,12.63-1.82,25.28-3.57,37.94-5.19,12.89-1.65,25.82-3.06,38.72-4.64,13.78-1.69,27.56-3.45,41.33-5.18,6.45-.81,12.9-1.66,19.35-2.41,19.81-2.28,39.63-4.42,59.43-6.8,19.57-2.35,39.11-5.01,58.68-7.38,14.02-1.7,28.08-3.05,42.1-4.74,13.12-1.58,26.2-3.4,39.31-5.09,6.67-.86,13.34-1.75,20.02-2.46,20.72-2.21,41.37-4.94,62.02-7.71,13.1-1.76,26.27-3,39.37-4.74,12.66-1.68,25.35-3.34,37.58-7.21,17.17-5.43,34.96-7.8,52.59-10.96,15.43-2.77,30.91-5.26,46.36-7.9,19.43-3.33,38.86-6.62,58.27-10.05,21.17-3.75,42.32-7.61,63.47-11.48,19.83-3.63,39.66-7.3,59.48-10.98,17.42-3.24,34.51-7.85,51.69-12.13,5.88-1.47,11.82-2.62,17.88-3.03,4.03-.27,4.72.27,3.73,3.83-3.84,13.87-2.24,28.06-2.7,42.14-.1,3.12,1.36,5.56,3.06,8,1.61,2.31.48,3.99-1.85,4.54-2.37.56-4.89.68-7.35.68-3.79,0-6.87,1.39-9.82,3.72-7.5,5.92-12.56,13.29-14.79,22.64-2.08,8.75-5.06,17.22-8.97,25.33-.97,2.02-1.99,4.05-3.28,5.86-2.84,3.99-6.79,5.04-11.2,2.84-2.18-1.09-4.1-2.71-6.1-4.16-4.29-3.12-8.82-3.52-13.14-.47-5.71,4.03-11.71,7.44-17.92,10.63-5.58,2.87-9.27,7.68-11.86,13.35-2.61,5.72-5.26,11.42-8.89,16.59-1.82,2.58-3.75,5.04-6.57,6.64-4.83,2.75-7.96,2.06-10.61-2.81-1.71-3.14-3.15-6.47-4.36-9.84-.99-2.74-2.03-3.74-4.78-1.84-9.15,6.32-17.73,13.1-21.83,23.99-.47,1.26-1.16,2.43-1.73,3.65-1.24,2.66-3.12,3.68-5.97,2.45-.82-.36-1.69-.64-2.56-.82-6.14-1.24-8.99,1.26-8.6,7.45.18,2.9,1.37,5.66.98,8.66-1.47,11.27-7.3,19.59-18.08,22.97-11.38,3.57-20.4,10.03-28.27,18.6-3.94,4.3-7.97,8.53-11.98,12.77-1.08,1.14-2.1,2.4-3.36,3.29-9.02,6.36-16.87,13.98-24.38,22.04-4.3,4.61-10.12,6.2-16.44,6.64-12.37.86-24.48,2.89-35.41,9.42-4.28,2.56-8.32,5.37-11.52,9.19-4.72,5.63-8.92,11.62-15.09,16.02-3.69,2.64-5.05,7.34-5.81,11.84-.78,4.65-1,9.34-1.13,14.07-.4,14.3-10.42,23.37-24.69,21.7-8.71-1.02-15.94,3-15.43,14.3.58,12.78,1.05,25.56,1.49,38.35.26,7.47-.21,7.78-7.74,8.48-17.86,1.66-35.61,4.12-53.3,7.08-13.04,2.18-26.13,4.03-39.2,6.03-13.95,2.14-27.9,4.33-41.86,6.42-19.06,2.85-38.12,5.64-57.19,8.43-14.63,2.14-29.26,4.26-43.9,6.36-11.31,1.62-22.63,3.23-33.95,4.79-11.54,1.59-23.09,3.14-34.64,4.67-13.1,1.73-26.21,3.42-39.32,5.13-12,1.56-24,3.13-36,4.67-13.33,1.71-26.67,3.4-40.01,5.06-15.12,1.89-30.24,3.78-45.37,5.61-12.9,1.56-25.82,2.99-38.72,4.55-14.9,1.81-29.79,3.75-44.7,5.56-12.68,1.54-25.38,2.94-38.06,4.48-14.9,1.81-29.79,3.72-44.69,5.55-3.34.41-6.72.48-10.04,1.01-6.86,1.09-13.7,2.24-19.81,5.99-2.69,1.66-5.87,2.29-8.99,2.66-14.02,1.64-28.06,3.14-42.1,4.72-14.03,1.58-28.06,3.21-42.09,4.8-10.47,1.19-20.94,2.35-31.41,3.54-15.14,1.72-30.29,3.34-45.41,5.25-8.01,1.01-16.07,1.56-24.08,2.57-16.67,2.1-33.44,3.38-50.15,5.19-19.63,2.13-39.33,3.42-58.96,5.36-15.88,1.57-31.78,2.07-47.67,2.94-2.16.12-4.45.77-6.94-.88Z"/>
</svg>